<svg xmlns="http://www.w3.org/2000/svg" xmlns:xlink="http://www.w3.org/1999/xlink" width="112" zoomAndPan="magnify" viewBox="0 0 84 36.000001" height="48" preserveAspectRatio="xMidYMid meet" version="1.0"><defs><g/></defs><g fill="#38b6ff" fill-opacity="1"><g transform="translate(3.563766, 19.216245)"><g><path d="M 3.34375 -10.421875 L 0.5625 -10.421875 L 0.5625 -13.390625 L 10.65625 -13.390625 L 10.65625 -10.421875 L 7.875 -10.421875 L 7.875 0 L 3.34375 0 Z M 3.34375 -10.421875 "/></g></g></g><g fill="#38b6ff" fill-opacity="1"><g transform="translate(14.787447, 19.216245)"><g><path d="M 11.40625 0.3125 C 8.96875 0.3125 7.472656 -0.816406 6.921875 -3.078125 L 6.4375 -5.078125 L 5.53125 -5.078125 L 5.53125 0 L 1.265625 0 L 1.265625 -13.390625 L 7.15625 -13.390625 C 8.269531 -13.390625 9.25 -13.222656 10.09375 -12.890625 C 10.945312 -12.554688 11.609375 -12.09375 12.078125 -11.5 C 12.546875 -10.90625 12.78125 -10.21875 12.78125 -9.4375 C 12.78125 -8.5625 12.566406 -7.828125 12.140625 -7.234375 C 11.722656 -6.648438 11.070312 -6.171875 10.1875 -5.796875 C 10.28125 -5.304688 10.382812 -4.859375 10.5 -4.453125 C 10.65625 -3.960938 10.867188 -3.617188 11.140625 -3.421875 C 11.421875 -3.222656 11.816406 -3.125 12.328125 -3.125 C 12.515625 -3.125 12.800781 -3.148438 13.1875 -3.203125 L 13.1875 -0.03125 C 12.582031 0.195312 11.988281 0.3125 11.40625 0.3125 Z M 6.265625 -7.796875 C 7.222656 -7.796875 7.898438 -7.898438 8.296875 -8.109375 C 8.691406 -8.328125 8.890625 -8.695312 8.890625 -9.21875 C 8.890625 -9.65625 8.726562 -9.972656 8.40625 -10.171875 C 8.082031 -10.378906 7.566406 -10.484375 6.859375 -10.484375 L 5.53125 -10.484375 L 5.53125 -7.796875 Z M 6.265625 -7.796875 "/></g></g></g><g fill="#38b6ff" fill-opacity="1"><g transform="translate(28.364789, 19.216245)"><g><path d="M 7.765625 0.3125 C 6.472656 0.3125 5.328125 0.0664062 4.328125 -0.421875 C 3.328125 -0.921875 2.546875 -1.613281 1.984375 -2.5 C 1.421875 -3.382812 1.140625 -4.398438 1.140625 -5.546875 L 1.140625 -13.390625 L 5.546875 -13.390625 L 5.546875 -5.546875 C 5.546875 -4.765625 5.734375 -4.175781 6.109375 -3.78125 C 6.484375 -3.394531 7.035156 -3.203125 7.765625 -3.203125 C 8.484375 -3.203125 9.03125 -3.398438 9.40625 -3.796875 C 9.789062 -4.191406 9.984375 -4.773438 9.984375 -5.546875 L 9.984375 -13.390625 L 14.375 -13.390625 L 14.375 -5.546875 C 14.375 -4.398438 14.09375 -3.382812 13.53125 -2.5 C 12.976562 -1.613281 12.195312 -0.921875 11.1875 -0.421875 C 10.1875 0.0664062 9.046875 0.3125 7.765625 0.3125 Z M 7.765625 0.3125 "/></g></g></g><g fill="#38b6ff" fill-opacity="1"><g transform="translate(43.887312, 19.216245)"><g><path d="M 1.265625 -13.390625 L 5.171875 -13.390625 L 10.5 -6.171875 L 10.5 -13.390625 L 13.984375 -13.390625 L 13.984375 0 L 10.09375 0 L 4.734375 -6.96875 L 4.734375 0 L 1.265625 0 Z M 1.265625 -13.390625 "/></g></g></g><g fill="#38b6ff" fill-opacity="1"><g transform="translate(59.137512, 19.216245)"><g><path d="M 7.484375 0.3125 C 6.179688 0.3125 5.003906 0 3.953125 -0.625 C 2.898438 -1.257812 2.070312 -2.117188 1.46875 -3.203125 C 0.875 -4.296875 0.578125 -5.5 0.578125 -6.8125 C 0.578125 -8.070312 0.878906 -9.222656 1.484375 -10.265625 C 2.085938 -11.316406 2.925781 -12.144531 4 -12.75 C 5.082031 -13.363281 6.3125 -13.671875 7.6875 -13.671875 C 8.4375 -13.671875 9.164062 -13.585938 9.875 -13.421875 C 10.582031 -13.253906 11.21875 -13.015625 11.78125 -12.703125 L 10.5 -9.6875 C 9.625 -10.050781 8.800781 -10.234375 8.03125 -10.234375 C 7.03125 -10.234375 6.257812 -9.910156 5.71875 -9.265625 C 5.175781 -8.628906 4.90625 -7.789062 4.90625 -6.75 C 4.90625 -6.070312 5.023438 -5.460938 5.265625 -4.921875 C 5.515625 -4.390625 5.863281 -3.96875 6.3125 -3.65625 C 6.757812 -3.34375 7.269531 -3.1875 7.84375 -3.1875 C 8.15625 -3.1875 8.414062 -3.210938 8.625 -3.265625 L 8.625 -6.40625 L 11.984375 -6.796875 L 11.984375 -0.703125 C 10.515625 -0.0234375 9.015625 0.3125 7.484375 0.3125 Z M 7.484375 0.3125 "/></g></g></g><g fill="#352dcf" fill-opacity="1"><g transform="translate(4.282093, 28.75136)"><g><path d="M 2 -6.25 L 0.34375 -6.25 L 0.34375 -8.03125 L 6.390625 -8.03125 L 6.390625 -6.25 L 4.734375 -6.25 L 4.734375 0 L 2 0 Z M 2 -6.25 "/></g></g></g><g fill="#352dcf" fill-opacity="1"><g transform="translate(11.012351, 28.75136)"><g><path d="M 2.28125 -8.03125 L 5.828125 -8.03125 L 8.140625 0 L 5.40625 0 L 5.09375 -1.546875 L 3.015625 -1.546875 L 2.6875 0 L 0.0625 0 Z M 4.828125 -2.96875 L 4.0625 -6.484375 L 3.265625 -2.96875 Z M 4.828125 -2.96875 "/></g></g></g><g fill="#352dcf" fill-opacity="1"><g transform="translate(19.165636, 28.75136)"><g><path d="M 0.765625 -8.03125 L 3.109375 -8.03125 L 6.296875 -3.703125 L 6.296875 -8.03125 L 8.390625 -8.03125 L 8.390625 0 L 6.0625 0 L 2.84375 -4.171875 L 2.84375 0 L 0.765625 0 Z M 0.765625 -8.03125 "/></g></g></g><g fill="#352dcf" fill-opacity="1"><g transform="translate(28.310384, 28.75136)"><g/></g></g><g fill="#352dcf" fill-opacity="1"><g transform="translate(30.49159, 28.75136)"><g><path d="M 0.765625 -8.03125 L 3.109375 -8.03125 L 6.296875 -3.703125 L 6.296875 -8.03125 L 8.390625 -8.03125 L 8.390625 0 L 6.0625 0 L 2.84375 -4.171875 L 2.84375 0 L 0.765625 0 Z M 0.765625 -8.03125 "/></g></g></g><g fill="#352dcf" fill-opacity="1"><g transform="translate(39.636338, 28.75136)"><g><path d="M 4.5 0.1875 C 3.707031 0.1875 2.992188 0 2.359375 -0.375 C 1.734375 -0.757812 1.238281 -1.273438 0.875 -1.921875 C 0.519531 -2.578125 0.34375 -3.296875 0.34375 -4.078125 C 0.34375 -4.835938 0.523438 -5.53125 0.890625 -6.15625 C 1.253906 -6.789062 1.757812 -7.289062 2.40625 -7.65625 C 3.050781 -8.019531 3.785156 -8.203125 4.609375 -8.203125 C 5.054688 -8.203125 5.492188 -8.148438 5.921875 -8.046875 C 6.347656 -7.953125 6.734375 -7.8125 7.078125 -7.625 L 6.296875 -5.8125 C 5.773438 -6.03125 5.285156 -6.140625 4.828125 -6.140625 C 4.222656 -6.140625 3.753906 -5.945312 3.421875 -5.5625 C 3.097656 -5.175781 2.9375 -4.671875 2.9375 -4.046875 C 2.9375 -3.640625 3.007812 -3.273438 3.15625 -2.953125 C 3.3125 -2.628906 3.519531 -2.375 3.78125 -2.1875 C 4.050781 -2.007812 4.359375 -1.921875 4.703125 -1.921875 C 4.890625 -1.921875 5.046875 -1.929688 5.171875 -1.953125 L 5.171875 -3.84375 L 7.1875 -4.078125 L 7.1875 -0.421875 C 6.3125 -0.015625 5.414062 0.1875 4.5 0.1875 Z M 4.5 0.1875 "/></g></g></g><g fill="#352dcf" fill-opacity="1"><g transform="translate(47.323052, 28.75136)"><g><path d="M 4.65625 0.1875 C 3.882812 0.1875 3.195312 0.0390625 2.59375 -0.25 C 1.988281 -0.550781 1.519531 -0.96875 1.1875 -1.5 C 0.851562 -2.03125 0.6875 -2.640625 0.6875 -3.328125 L 0.6875 -8.03125 L 3.328125 -8.03125 L 3.328125 -3.328125 C 3.328125 -2.859375 3.4375 -2.503906 3.65625 -2.265625 C 3.882812 -2.035156 4.21875 -1.921875 4.65625 -1.921875 C 5.09375 -1.921875 5.421875 -2.039062 5.640625 -2.28125 C 5.867188 -2.519531 5.984375 -2.867188 5.984375 -3.328125 L 5.984375 -8.03125 L 8.625 -8.03125 L 8.625 -3.328125 C 8.625 -2.640625 8.457031 -2.03125 8.125 -1.5 C 7.789062 -0.96875 7.320312 -0.550781 6.71875 -0.25 C 6.113281 0.0390625 5.425781 0.1875 4.65625 0.1875 Z M 4.65625 0.1875 "/></g></g></g><g fill="#352dcf" fill-opacity="1"><g transform="translate(56.631092, 28.75136)"><g><path d="M 2.28125 -2.234375 L -0.03125 -8.03125 L 2.40625 -8.03125 L 3.53125 -4.421875 L 4.640625 -8.03125 L 7.21875 -8.03125 L 4.78125 -2.234375 L 4.78125 0 L 2.28125 0 Z M 2.28125 -2.234375 "/></g></g></g><g fill="#352dcf" fill-opacity="1"><g transform="translate(63.769596, 28.75136)"><g><path d="M 0.765625 -8.03125 L 6.390625 -8.03125 L 6.390625 -6.25 L 3.59375 -6.25 L 3.59375 -4.796875 L 6.15625 -4.796875 L 6.15625 -3.328125 L 3.59375 -3.328125 L 3.59375 -1.78125 L 6.390625 -1.78125 L 6.390625 0 L 0.765625 0 Z M 0.765625 -8.03125 "/></g></g></g><g fill="#352dcf" fill-opacity="1"><g transform="translate(70.709801, 28.75136)"><g><path d="M 0.765625 -8.03125 L 3.109375 -8.03125 L 6.296875 -3.703125 L 6.296875 -8.03125 L 8.390625 -8.03125 L 8.390625 0 L 6.0625 0 L 2.84375 -4.171875 L 2.84375 0 L 0.765625 0 Z M 0.765625 -8.03125 "/></g></g></g></svg>